# xmcd CD database file
#
# Track frame offsets:
#	150
#	25122
#	51385
#	71562
#	91440
#	107777
#	137197
#	161525
#	185320
#	208782
#	240435
#	262017
#	293572
#	319202
#
# Disc length: 4539 seconds
#
# Revision: 0
# Processed by: cddbd v1.5.1PL2 Copyright (c) Steve Scherf et al.
# Submitted via: CDex 1.51
#
DISCID=cc11b90e
DTITLE=Stan Kenton - Various
DYEAR=1900
DGENRE=Jazz
TTITLE0=Stan Kenton - Turtle Talk
TTITLE1=Stan Kenton - Stairway To The Stars
TTITLE2=Stan Kenton - Limehouse Blues
TTITLE3=Stan Kenton - Malaguena
TTITLE4=Stan Kenton - Misty
TTITLE5=Stan Kenton - Waltz Of The Prophets(First Version)
TTITLE6=Stan Kenton - Body And Soul(First Version)
TTITLE7=Stan Kenton - It Might As Well Be Spring
TTITLE8=Stan Kenton and His Orchestra - Send In The Clowns
TTITLE9=Stan Kenton and His Orchestra - Street Of Dreams
TTITLE10=Stan Kenton and His Orchestra - Body And Soul
TTITLE11=Stan Kenton and His Orchestra - Rhapsody In Blue
TTITLE12=Stan Kenton and His Orchestra - Tiare
TTITLE13=Stan Kenton and His Orchestra - My Funny Valentine
EXTD=
EXTT0=
EXTT1=
EXTT2=
EXTT3=
EXTT4=
EXTT5=
EXTT6=
EXTT7=
EXTT8=
EXTT9=
EXTT10=
EXTT11=
EXTT12=
EXTT13=
PLAYORDER=
